<svg width="22" height="22" viewBox="0 0 22 22" fill="none" xmlns="http://www.w3.org/2000/svg">
<path d="M5.75984 20C5.30393 20 4.91316 19.8372 4.58752 19.5115C4.26187 19.1859 4.09905 18.7951 4.09905 18.3392V4.5156H3V2.85482H7.83582V2H14.479V2.85482H19.3148V4.5156H18.2157V18.3392C18.2157 18.7788 18.0529 19.1655 17.7273 19.4993C17.4016 19.8331 17.0109 20 16.555 20H5.75984ZM16.555 4.5156H5.75984V18.3392H16.555V4.5156ZM8.32429 16.2877H9.88738V6.54274H8.32429V16.2877ZM12.4274 16.2877H13.9905V6.54274H12.4274V16.2877ZM5.75984 4.5156V18.3392V4.5156Z" fill="#4D4D4D"/>
</svg>
