<svg width="22" height="22" viewBox="0 0 22 22" fill="none" xmlns="http://www.w3.org/2000/svg">
<path d="M11 20.3989L9.89163 19.4137C8.13465 17.8045 6.68555 16.417 5.54434 15.2512C4.40312 14.0853 3.4959 13.0426 2.82266 12.1231C2.14943 11.2035 1.67734 10.3702 1.40641 9.62307C1.13547 8.87595 1 8.11651 1 7.34475C1 5.81765 1.50903 4.54508 2.5271 3.52701C3.54516 2.50895 4.80953 1.99992 6.3202 1.99992C7.25616 1.99992 8.11823 2.21338 8.90641 2.64031C9.69458 3.06724 10.3924 3.69122 11 4.51224C11.6897 3.64196 12.4204 3.00567 13.1921 2.60337C13.9639 2.20107 14.7931 1.99992 15.6798 1.99992C17.1905 1.99992 18.4548 2.50895 19.4729 3.52701C20.491 4.54508 21 5.81765 21 7.34475C21 8.11651 20.8645 8.87595 20.5936 9.62307C20.3227 10.3702 19.8506 11.2035 19.1773 12.1231C18.5041 13.0426 17.5969 14.0853 16.4557 15.2512C15.3145 16.417 13.8654 17.8045 12.1084 19.4137L11 20.3989ZM11 18.1822C12.6585 16.6551 14.0213 15.3497 15.0887 14.2659C16.156 13.1822 17.0057 12.2339 17.6379 11.4211C18.2701 10.6083 18.7094 9.88169 18.9557 9.2413C19.202 8.60091 19.3251 7.96872 19.3251 7.34475C19.3251 6.27742 18.9844 5.39893 18.303 4.70928C17.6215 4.01962 16.7471 3.6748 15.6798 3.6748C14.8424 3.6748 14.0665 3.93342 13.3522 4.45066C12.6379 4.9679 12.0591 5.6945 11.6158 6.63046H10.3596C9.93268 5.71092 9.35797 4.98843 8.63547 4.46297C7.91297 3.93752 7.14122 3.6748 6.3202 3.6748C5.25288 3.6748 4.37849 4.01962 3.69705 4.70928C3.0156 5.39893 2.67488 6.27742 2.67488 7.34475C2.67488 7.98514 2.80214 8.62554 3.05665 9.26593C3.31117 9.90632 3.75041 10.6411 4.37439 11.4704C4.99836 12.2996 5.84811 13.252 6.92365 14.3275C7.99918 15.403 9.35797 16.6879 11 18.1822Z" fill="#4D4D4D"/>
</svg>
