<svg width="23" height="22" viewBox="0 0 23 22" fill="none" xmlns="http://www.w3.org/2000/svg">
<g clip-path="url(#clip0_24_1722)">
<path d="M9.98843 21.5181C9.60738 21.5181 9.28797 21.3892 9.0302 21.1314C8.77244 20.8737 8.64355 20.5542 8.64355 20.1732V12.1039L0.607893 1.84921C0.294087 1.46816 0.249258 1.0647 0.473405 0.638818C0.697551 0.212939 1.04498 0 1.51569 0H21.1509C21.6216 0 21.9691 0.212939 22.1932 0.638818C22.4174 1.0647 22.3725 1.46816 22.0587 1.84921L14.0231 12.1039V20.1732C14.0231 20.5542 13.8942 20.8737 13.6364 21.1314C13.3786 21.3892 13.0592 21.5181 12.6782 21.5181H9.98843ZM11.3333 12.2384L19.4026 2.01732H3.26403L11.3333 12.2384Z" fill="#4D4D4D"/>
</g>
<defs>
<clipPath id="clip0_24_1722">
<rect width="22" height="22" fill="white" transform="translate(0.333313)"/>
</clipPath>
</defs>
</svg>
