<svg width="242" height="178" viewBox="0 0 242 178" fill="none" xmlns="http://www.w3.org/2000/svg">
<path d="M119.879 0.884089C100.172 0.884089 84.1963 16.9985 84.1963 36.8766C84.1963 56.7547 100.172 72.8691 119.879 72.8691C139.586 72.8691 155.561 56.7547 155.561 36.8766C155.561 16.9985 139.586 0.884089 119.879 0.884089Z" fill="#1C74E9"/>
<path d="M127.295 95.9048C123.999 101.664 115.759 101.664 112.462 95.9048L90.2128 57.0328C86.9166 51.2739 91.037 44.0755 97.6294 44.0755L142.128 44.0755C148.721 44.0755 152.841 51.2739 149.545 57.0328L127.295 95.9048Z" fill="#166FE3"/>
<path d="M14.7899 98.5824C8.04973 117.262 17.5979 137.916 36.1164 144.715C54.6348 151.513 75.111 141.882 81.8511 123.203C88.5913 104.523 79.0431 83.8694 60.5247 77.0707C42.0062 70.272 21.5301 79.9031 14.7899 98.5824Z" fill="#E91C52"/>
<path d="M105.847 124.052C110.084 129.146 107.266 136.957 100.773 138.111L56.9512 145.906C50.4581 147.06 45.1605 140.693 47.4162 134.444L62.6358 92.2655C64.8898 86.0168 73.0056 84.5735 77.2432 89.6675L105.847 124.052Z" fill="#E3164D"/>
<path d="M226.283 99.0145C219.543 80.3352 199.066 70.7041 180.548 77.5028C162.029 84.3015 152.481 104.956 159.221 123.635C165.962 142.314 186.438 151.945 204.956 145.147C223.475 138.348 233.023 117.694 226.283 99.0145Z" fill="#E8BF1A"/>
<path d="M140.298 138.543C133.806 137.388 130.988 129.578 135.225 124.484L163.829 90.0994C168.066 85.0054 176.181 86.4487 178.436 92.6974L193.656 134.876C195.911 141.125 190.614 147.492 184.121 146.337L140.298 138.543Z" fill="#E3BA17"/>
</svg>
