<svg width="22" height="22" viewBox="0 0 22 22" fill="none" xmlns="http://www.w3.org/2000/svg">
<g clip-path="url(#clip0_427_21)">
<path d="M7 5C7 2.79086 8.79086 1 11 1C13.2091 1 15 2.79086 15 5C15 7.20914 13.2091 9 11 9C8.79086 9 7 7.20914 7 5Z" stroke="black" stroke-width="2"/>
<path d="M3.75159 20.7425C1.67779 19.9812 0.604492 17.6794 1.35431 15.6014C2.10412 13.5234 4.39311 12.4561 6.46691 13.2174C8.54071 13.9788 9.614 16.2805 8.86419 18.3585C8.11437 20.4365 5.82538 21.5039 3.75159 20.7425Z" stroke="black" stroke-width="2"/>
<path d="M15.6389 13.161C17.7127 12.3997 20.0017 13.467 20.7515 15.545C21.5014 17.623 20.4281 19.9248 18.3543 20.6861C16.2805 21.4475 13.9915 20.3802 13.2417 18.3022C12.4918 16.2242 13.5651 13.9224 15.6389 13.161Z" stroke="black" stroke-width="2"/>
</g>
<defs>
<clipPath id="clip0_427_21">
<rect width="22" height="22" fill="white"/>
</clipPath>
</defs>
</svg>
